<svg width="265" height="265" viewBox="0 0 265 265" fill="none" xmlns="http://www.w3.org/2000/svg">
<circle cx="132.5" cy="132.5" r="122.5" stroke="#2E918D" stroke-width="20"/>
<path d="M139.34 98.92C134.02 98.92 130.03 97.7167 127.37 95.31C124.71 92.7767 123.38 89.2933 123.38 84.86C123.38 80.4267 125.09 76.7533 128.51 73.84C132.057 70.8 136.427 69.28 141.62 69.28C146.307 69.28 150.107 70.42 153.02 72.7C155.933 74.98 157.39 78.21 157.39 82.39C157.39 87.4567 155.743 91.51 152.45 94.55C149.157 97.4633 144.787 98.92 139.34 98.92ZM121.1 200.95C117.047 200.95 114.26 200.127 112.74 198.48C111.22 196.833 110.46 194.237 110.46 190.69C110.46 189.677 110.587 187.903 110.84 185.37C112.867 162.19 116.223 141.1 120.91 122.1C121.923 118.173 123.57 115.45 125.85 113.93C128.257 112.283 132.057 111.46 137.25 111.46C142.697 111.46 145.42 113.677 145.42 118.11C145.42 118.743 145.293 119.947 145.04 121.72C139.34 148.827 135.92 171.563 134.78 189.93C134.527 193.983 133.323 196.833 131.17 198.48C129.017 200.127 125.66 200.95 121.1 200.95Z" fill="#2E918D"/>
</svg>
