<svg width="89" height="102" viewBox="0 0 89 102" fill="none" xmlns="http://www.w3.org/2000/svg">
<path d="M72.4306 29.3044C78.8925 35.7917 82.9139 44.3277 83.8097 53.4579C84.7054 62.5882 82.42 71.7478 77.3429 79.3761C72.2658 87.0043 64.7112 92.6293 55.9662 95.2925C47.2211 97.9557 37.8268 97.4923 29.384 93.9814C20.9411 90.4705 13.972 84.1293 9.66409 76.0381C5.35622 67.947 3.97613 58.6066 5.75896 49.6085C7.5418 40.6103 12.3772 32.5112 19.4414 26.691C26.5056 20.8708 35.3614 17.6897 44.4999 17.6897M44.4999 17.6897L29.384 35.931M44.4999 17.6897L23.96 5" stroke="black" stroke-width="10" stroke-linecap="round" stroke-linejoin="round"/>
</svg>
